# xmcd CD database file
# 
# Track frame offsets:
# 150
# 11540
# 24005
# 40240
# 
# Disc length: 715 seconds
#
# 
# Revision: 0
# Processed by: cddbd v1.4b41PL1 Copyright (c) Steve Scherf et al.
# Submitted via: SuperSonic v3.0
# 
DISCID=1e02c904
DTITLE=Various, Country - DEMO
DYEAR=1900
DGENRE=
TTITLE0=EVEN A BLIND MAN
TTITLE1=TRYIN' TO MAKE A LIVIN' ON THE ROAD
TTITLE2=BLACK COFFEE
TTITLE3=OLD MEMORY
EXTD=
EXTT0=
EXTT1=
EXTT2=
EXTT3=
PLAYORDER=
